<?xml version="1.0" encoding="UTF-8"?>
<svg width="20px" height="20px" viewBox="0 0 20 20" version="1.1" xmlns="http://www.w3.org/2000/svg" xmlns:xlink="http://www.w3.org/1999/xlink">
    <!-- Generator: Sketch 53.2 (72643) - https://sketchapp.com -->
    <title>icon/bianjipaicheng</title>
    <desc>Created with Sketch.</desc>
    <g id="icon/bianjipaicheng" stroke="none" stroke-width="1" fill="none" fill-rule="evenodd">
        <g id="Group-12" transform="translate(3.000000, 2.000000)" fill="#DCE0F2">
            <path d="M11.73621,12.1083047 L11.73621,3.20845673 L2.13244333,3.20845673 L2.13244333,13.8123807 L10.11631,13.8123807 C9.99051,13.9425815 9.89644333,14.0752014 9.77054333,14.1623885 C9.55684333,14.3103515 9.40271,14.4938057 9.31151,14.7333963 C9.16054333,15.1301624 9.00941,15.5268622 8.85621,15.9290961 C8.72601,15.9290961 8.59584333,15.9291955 8.46567667,15.9290961 C7.42714333,15.9282014 6.38857667,15.926677 5.35001,15.9265444 C4.61421,15.926445 3.87841,15.9286653 3.14261,15.9289635 C2.44004333,15.9292618 1.73751,15.9299246 1.03497667,15.927638 C0.522743333,15.9260474 0.0715766667,15.5190747 0.01661,15.0121565 C0.00774333333,14.9300396 0.00247666667,14.8470942 0.00244333333,14.7645464 C0.00177666667,10.5755542 0.00351,6.38652885 9.9999991e-06,2.19753665 C-0.000490000001,1.6050883 0.363243333,1.25617407 0.720043333,1.14635341 C0.842543333,1.10860877 0.975943333,1.09386218 1.10487667,1.09104542 C1.44337667,1.08358928 1.78214333,1.0885269 2.13164333,1.0885269 L2.13164333,0.0331350877 L4.25884333,0.0331350877 L4.25884333,1.08332417 L9.59831,1.08332417 L9.59831,0.0345931774 L11.7256767,0.0345931774 L11.7256767,1.08415263 C11.7633767,1.08587583 11.7925433,1.08832807 11.8217433,1.08836121 C12.1411433,1.08865945 12.46061,1.08670429 12.78001,1.08899084 C13.30741,1.09273548 13.72061,1.41424425 13.8341433,1.91625789 C13.8593433,2.02776862 13.8617767,2.14603957 13.86191,2.26119552 C13.8629767,3.28812144 13.86051,4.31511365 13.8604767,5.34203957 C13.8604767,6.33310975 13.86231,7.32417992 13.86301,8.3152501 C13.8633767,8.83141384 13.8623767,9.34757758 13.86411,9.86374133 C13.86431,9.9173924 13.84721,9.95291676 13.8096767,9.99228519 C13.6646767,10.1444567 13.52561,10.3022287 13.3844433,10.4580123 C13.3714767,10.4723281 13.3623433,10.4922442 13.3466433,10.5016887 C13.08231,10.6599908 12.9015767,10.9059441 12.6915433,11.1205483 C12.39341,11.4251897 12.10151,11.735829 11.8066767,12.0436185 C11.7883433,12.0627394 11.7676433,12.0795737 11.73621,12.1083047 Z M11.9462833,16.1352534 C11.8549167,16.0390858 11.76965,15.9496784 11.6848167,15.8598402 C11.36375,15.5199396 11.04335,15.1794094 10.72135,14.8404035 C10.6813167,14.7982183 10.67645,14.7672008 10.7191833,14.7227953 C11.0513167,14.3780565 11.3820167,14.0318928 11.71245,13.6855302 C11.9778833,13.4073002 12.2416167,13.1274133 12.5073833,12.8494483 C12.93355,12.40377 13.3608167,11.9591189 13.7874167,11.5138713 C13.81015,11.4901442 13.83115,11.4648265 13.8604833,11.4317544 C14.3053167,11.8875731 14.7432833,12.3363996 15.1846833,12.7887057 C14.1039833,13.9055029 13.02755,15.0178928 11.9462833,16.1352534 Z M3.2059,6.38030214 L3.2059,5.33568031 L10.6563,5.33568031 L10.6563,6.38030214 L3.2059,6.38030214 Z M3.20433333,8.49980117 L3.20433333,7.45789669 L10.6549,7.45789669 L10.6549,8.49980117 L3.20433333,8.49980117 Z M3.20466667,10.6210897 L3.20466667,9.57782651 L10.6558667,9.57782651 L10.6558667,10.6210897 L3.20466667,10.6210897 Z M15.5313433,12.5361446 C15.0837433,12.0629283 14.6488433,11.6031329 14.2001433,11.1287236 C14.33371,10.9910335 14.4544767,10.8420101 14.60011,10.7231096 C14.7522433,10.5989068 14.9413767,10.6055014 15.09891,10.7111135 C15.2699433,10.8257392 15.4287433,10.9627665 15.5755433,11.1074156 C15.69271,11.2228698 15.79321,11.358207 15.8845433,11.495632 C16.03891,11.7279322 16.03211,11.9663961 15.85701,12.1861037 C15.7594767,12.3084507 15.6437767,12.4164487 15.5313433,12.5361446 Z M11.6430633,16.4748558 C10.96073,16.6440604 10.2954967,16.8090897 9.60036333,16.9815088 C9.84473,16.3371326 10.0809967,15.7141306 10.3219633,15.0786686 C10.7624633,15.5441637 11.19653,16.0029318 11.6430633,16.4748558 Z" id="Combined-Shape"></path>
        </g>
    </g>
</svg>