<?xml version="1.0" encoding="UTF-8"?>
<svg width="24px" height="24px" viewBox="0 0 24 24" version="1.1" xmlns="http://www.w3.org/2000/svg" xmlns:xlink="http://www.w3.org/1999/xlink">
    <!-- Generator: Sketch 53.2 (72643) - https://sketchapp.com -->
    <title>icon/bianjizhebidangqian copy 13</title>
    <desc>Created with Sketch.</desc>
    <g id="icon/bianjizhebidangqian-copy-13" stroke="none" stroke-width="1" fill="none" fill-rule="evenodd">
        <g id="icon/daochu" transform="translate(3.000000, 4.000000)" fill="#DCE0F2">
            <path d="M17.2933682,13.506788 C17.2933682,14.3818087 16.6106148,15.0855224 15.7565438,15.0855224 L3.3840527,15.0855224 C2.52998172,15.0855224 1.84722825,14.3818086 1.84722825,13.506788 L1.84722825,7.13062671 C1.84722825,6.63092567 2.13846319,6.1364812 2.60169161,5.79242874 C3.00684643,4.82568757 3.36185787,4.13519963 3.81815758,3.49208869 L3.40376248,3.49177736 C1.5524525,3.62807341 0,5.2702939 0,7.13062671 L0,13.506788 C0,15.4788186 1.51576103,17 3.3840527,17 L15.6159473,17 C17.5240307,17 19,15.4376032 19,13.506788 L19,9.01859667 L17.2933682,10.4478043 L17.2933682,13.506788 Z M11.8072798,7.00131395 L12.0912981,6.98800769 L12.0912981,8.43484152 C12.0912981,8.60674769 12.1230283,8.8792834 12.2157398,9.14472145 C12.3704021,9.5875282 12.6261136,9.80518433 12.961958,9.78429029 C13.0438143,9.74210563 13.1331888,9.70920628 13.2397341,9.67870177 C13.2996606,9.66154447 13.5171567,9.60707087 13.4770803,9.61744384 C13.5082139,9.60938484 13.5167369,9.6074198 13.5167369,9.73905629 L13.6204125,9.52325141 L18.5565098,5.59934787 C18.8925128,5.36846905 19,5.16905252 19,4.81202262 C19,4.43356128 18.8920566,4.23329833 18.6887461,4.01871667 L13.6166529,0.242662314 C13.2939345,-0.0234382143 13.0143305,-0.0472553841 12.7706491,0.0588695446 C12.7252574,0.0786379416 12.6962772,0.0964411911 12.6753848,0.112052966 C12.2419057,0.409910832 12.0912981,0.631669615 12.0912981,1.04429097 L12.0912981,2.62302541 L11.8198421,2.62302541 C7.92176263,2.62302541 4.78028065,5.94729451 4.78028065,10.0288818 C4.78028065,10.5943761 4.84168649,11.1496753 4.95932489,11.6567901 C6.15517177,8.95955584 8.82118088,7.14121263 11.8072798,7.00131395 Z" id="Combined-Shape"></path>
        </g>
    </g>
</svg>