<?xml version="1.0" encoding="UTF-8"?>
<svg width="24px" height="24px" viewBox="0 0 24 24" version="1.1" xmlns="http://www.w3.org/2000/svg" xmlns:xlink="http://www.w3.org/1999/xlink">
    <!-- Generator: Sketch 59.1 (86144) - https://sketch.com -->
    <title>icon/edit_beam</title>
    <desc>Created with Sketch.</desc>
    <g id="icon/edit_beam" stroke="none" stroke-width="1" fill="none" fill-rule="evenodd">
        <g id="编组" transform="translate(12.000000, 11.000000)" fill="#B3B9CC">
            <g id="bianji-3">
                <path d="M9.89252961,1.25457294 C9.92320713,1.32311268 9.94779897,1.40305031 9.96639175,1.49446203 C9.98537435,1.5858411 9.99478443,1.68103035 9.99478443,1.78002978 C9.99478443,1.87900744 9.9758668,1.97794155 9.93795575,2.07695187 C9.89996889,2.17597307 9.83933934,2.27116233 9.75621873,2.36250873 C9.66531232,2.45393134 9.58390262,2.5338472 9.51190303,2.60237606 C9.43994673,2.67091581 9.37747633,2.73183518 9.32442684,2.78514509 C9.26388393,2.84606446 9.20702275,2.89938524 9.15399492,2.94504212 L7.02927554,0.809129926 C7.12014947,0.72536034 7.22812181,0.624477585 7.35306262,0.506394585 C7.47804675,0.388366011 7.58222907,0.295136287 7.6655446,0.226563883 C7.77160028,0.142826957 7.88147846,0.0838126702 7.99508168,0.0494992553 C8.10868491,0.0152729255 8.22043644,2.13085106e-05 8.33024965,0.00384238298 C8.44007368,0.00767434043 8.54609687,0.0248092766 8.64842749,0.0552471915 C8.75067148,0.0856851064 8.83962874,0.119933202 8.9153534,0.158045915 C9.07450187,0.241880819 9.25059717,0.388420447 9.44376923,0.597795426 C9.63685466,0.807181287 9.78651725,1.02614704 9.89252961,1.25457294 L9.89252961,1.25457294 L9.89252961,1.25457294 Z M1.04136414,6.82860888 C1.08679028,6.78291935 1.1928676,6.67439446 1.35947701,6.50306687 C1.52614056,6.33170663 1.73448353,6.12042655 1.98439765,5.8691178 L2.8138929,5.03535186 L3.73424041,4.11014154 L6.17712678,1.6543373 L8.30182448,3.80170181 L5.85894894,6.25748428 L4.94999315,7.18270549 C4.64699706,7.47967113 4.37431033,7.75193589 4.13191128,7.99940181 C3.88953389,8.2468895 3.68874931,8.4505601 3.52970912,8.6104789 C3.37060396,8.77037594 3.27591836,8.86175501 3.24563066,8.88462699 C3.16993849,8.95315585 3.08275712,9.025484 2.98433564,9.10161145 C2.88588167,9.17780421 2.78363768,9.2387127 2.67754952,9.28438047 C2.57153716,9.33771214 2.41622203,9.40239815 2.21166907,9.47855827 C2.00717025,9.55469661 1.79319639,9.62894073 1.56971498,9.70127978 C1.34629855,9.77366236 1.13419803,9.83647595 0.933413439,9.88979672 C0.73269382,9.94303041 0.583128688,9.97735472 0.484642233,9.99254102 C0.280078455,10.0153912 0.143778392,9.98493154 0.0755796402,9.90117284 C0.00741336508,9.8174468 -0.0115259153,9.6765789 0.0187617778,9.47854738 C0.033921873,9.37196024 0.0699270899,9.21778937 0.126734116,9.01595855 C0.183551979,8.81413862 0.244127365,8.60478541 0.308481958,8.38773564 C0.372901524,8.17075118 0.435361101,7.97083634 0.495990635,7.7880891 C0.556576857,7.60535273 0.605793016,7.47969291 0.643682413,7.41115317 C0.689130201,7.30457691 0.740284688,7.20746081 0.797080889,7.11989193 C0.853909598,7.03230124 0.935362603,6.93522868 1.04136414,6.82860888 L1.04136414,6.82860888 L1.04136414,6.82860888 Z" id="Shape"></path>
            </g>
        </g>
        <g id="编组-2" transform="translate(3.000000, 3.000000)" fill="#7B808E">
            <path d="M16.5,0 C17.3284271,0 18,0.671572875 18,1.5 L18,6 L16.4,6 L16.4,1.6 L9.528,1.599 L9.52815755,5.0094401 L8.52815755,5.0094401 L8.528,1.599 L1.6,1.6 L1.599,8.499 L5.00984701,8.49975586 L5.00984701,9.49975586 L1.599,9.499 L1.6,16.4 L6,16.4 L6,18 L1.5,18 C0.671572875,18 0,17.3284271 0,16.5 L0,1.5 C0,0.671572875 0.671572875,0 1.5,0 L16.5,0 Z" id="形状结合"></path>
        </g>
    </g>
</svg>