<?xml version="1.0" encoding="UTF-8"?>
<svg width="24px" height="24px" viewBox="0 0 24 24" version="1.1" xmlns="http://www.w3.org/2000/svg" xmlns:xlink="http://www.w3.org/1999/xlink">
    <!-- Generator: Sketch 59.1 (86144) - https://sketch.com -->
    <title>icon/edit_BEV</title>
    <desc>Created with Sketch.</desc>
    <g id="icon/edit_BEV" stroke="none" stroke-width="1" fill="none" fill-rule="evenodd">
        <path d="M19.5882353,3 C20.3672269,3 21,3.63330531 21,4.41295207 L21,4.41295207 L21,9 L19.389,9 L19.3890756,7.31959629 L4.61092436,7.31959629 L4.61092436,19.3851976 L9,19.385 L9,21 L4.4117647,21 C3.67859614,21 3.07494984,20.4367748 3.00646954,19.72262 L3,19.5870479 L3,4.41295207 C3,3.6333053 3.63277311,3 4.4117647,3 L4.4117647,3 Z M18.6327731,4.60723297 C18.3,4.60723297 18.0277311,4.87973088 18.0277311,5.21278385 C18.0277311,5.54835997 18.297479,5.81833474 18.6327731,5.81833474 C18.9680672,5.81833474 19.2378151,5.54583683 19.2378151,5.21278385 C19.2378151,4.87720774 18.9655462,4.60723297 18.6327731,4.60723297 Z M16.3563025,4.60723297 C16.0210084,4.60723297 15.7512605,4.87973088 15.7512605,5.21278385 C15.7512605,5.54835997 16.0235294,5.81833474 16.3563025,5.81833474 C16.6915966,5.81833474 16.9613445,5.54583683 16.9613445,5.21278385 C16.9613445,4.87720774 16.6915966,4.60723297 16.3563025,4.60723297 Z M14.0798319,4.60723297 C13.7445378,4.60723297 13.4747899,4.87973088 13.4747899,5.21278385 C13.4747899,5.54835997 13.7470588,5.81833474 14.0798319,5.81833474 C14.4151261,5.81833474 14.684874,5.54583683 14.684874,5.21278385 C14.684874,4.87720774 14.4151261,4.60723297 14.0798319,4.60723297 Z" id="Combined-Shape" fill="#7B808E"></path>
        <g id="bianji-3" transform="translate(12.000000, 11.000000)" fill="#B3B9CC">
            <path d="M9.89252961,1.25457294 C9.92320713,1.32311268 9.94779897,1.40305031 9.96639175,1.49446203 C9.98537435,1.5858411 9.99478443,1.68103035 9.99478443,1.78002978 C9.99478443,1.87900744 9.9758668,1.97794155 9.93795575,2.07695187 C9.89996889,2.17597307 9.83933934,2.27116233 9.75621873,2.36250873 C9.66531232,2.45393134 9.58390262,2.5338472 9.51190303,2.60237606 C9.43994673,2.67091581 9.37747633,2.73183518 9.32442684,2.78514509 C9.26388393,2.84606446 9.20702275,2.89938524 9.15399492,2.94504212 L7.02927554,0.809129926 C7.12014947,0.72536034 7.22812181,0.624477585 7.35306262,0.506394585 C7.47804675,0.388366011 7.58222907,0.295136287 7.6655446,0.226563883 C7.77160028,0.142826957 7.88147846,0.0838126702 7.99508168,0.0494992553 C8.10868491,0.0152729255 8.22043644,2.13085106e-05 8.33024965,0.00384238298 C8.44007368,0.00767434043 8.54609687,0.0248092766 8.64842749,0.0552471915 C8.75067148,0.0856851064 8.83962874,0.119933202 8.9153534,0.158045915 C9.07450187,0.241880819 9.25059717,0.388420447 9.44376923,0.597795426 C9.63685466,0.807181287 9.78651725,1.02614704 9.89252961,1.25457294 L9.89252961,1.25457294 L9.89252961,1.25457294 Z M1.04136414,6.82860888 C1.08679028,6.78291935 1.1928676,6.67439446 1.35947701,6.50306687 C1.52614056,6.33170663 1.73448353,6.12042655 1.98439765,5.8691178 L2.8138929,5.03535186 L3.73424041,4.11014154 L6.17712678,1.6543373 L8.30182448,3.80170181 L5.85894894,6.25748428 L4.94999315,7.18270549 C4.64699706,7.47967113 4.37431033,7.75193589 4.13191128,7.99940181 C3.88953389,8.2468895 3.68874931,8.4505601 3.52970912,8.6104789 C3.37060396,8.77037594 3.27591836,8.86175501 3.24563066,8.88462699 C3.16993849,8.95315585 3.08275712,9.025484 2.98433564,9.10161145 C2.88588167,9.17780421 2.78363768,9.2387127 2.67754952,9.28438047 C2.57153716,9.33771214 2.41622203,9.40239815 2.21166907,9.47855827 C2.00717025,9.55469661 1.79319639,9.62894073 1.56971498,9.70127978 C1.34629855,9.77366236 1.13419803,9.83647595 0.933413439,9.88979672 C0.73269382,9.94303041 0.583128688,9.97735472 0.484642233,9.99254102 C0.280078455,10.0153912 0.143778392,9.98493154 0.0755796402,9.90117284 C0.00741336508,9.8174468 -0.0115259153,9.6765789 0.0187617778,9.47854738 C0.033921873,9.37196024 0.0699270899,9.21778937 0.126734116,9.01595855 C0.183551979,8.81413862 0.244127365,8.60478541 0.308481958,8.38773564 C0.372901524,8.17075118 0.435361101,7.97083634 0.495990635,7.7880891 C0.556576857,7.60535273 0.605793016,7.47969291 0.643682413,7.41115317 C0.689130201,7.30457691 0.740284688,7.20746081 0.797080889,7.11989193 C0.853909598,7.03230124 0.935362603,6.93522868 1.04136414,6.82860888 L1.04136414,6.82860888 L1.04136414,6.82860888 Z" id="Shape"></path>
        </g>
    </g>
</svg>