<?xml version="1.0" encoding="UTF-8"?>
<svg width="60px" height="60px" viewBox="0 0 60 60" version="1.1" xmlns="http://www.w3.org/2000/svg" xmlns:xlink="http://www.w3.org/1999/xlink">
    <!-- Generator: Sketch 53.1 (72631) - https://sketchapp.com -->
    <title>icon/error</title>
    <desc>Created with Sketch.</desc>
    <g id="icon/error" stroke="none" stroke-width="1" fill="none" fill-rule="evenodd">
        <g id="Group" fill="#E4694F">
            <g id="Group-16" transform="translate(15.000000, 15.000000)">
                <path d="M10.7036,14.9803333 C7.14493333,11.443 3.64793333,7.96666667 0.1636,4.503 C1.6396,3.037 3.02893333,1.657 4.46593333,0.23 C7.9046,3.68433333 11.3829333,7.17866667 14.9012667,10.7133333 C18.4722667,7.121 21.9476,3.625 25.4112667,0.14 C26.8942667,1.65066667 28.2642667,3.04566667 29.6522667,4.45933333 C26.2412667,7.85033333 22.7456,11.3253333 19.2282667,14.8223333 C22.8589333,18.4283333 26.3556,21.901 29.8449333,25.3663333 C28.2982667,26.8636667 26.8956,28.2226667 25.5062667,29.568 C22.1589333,26.2076667 18.6816,22.7166667 15.1579333,19.1796667 C11.5089333,22.8473333 8.0176,26.3563333 4.55393333,29.8376667 C3.02426667,28.3146667 1.63593333,26.932 0.166266667,25.469 C3.6506,22.0006667 7.1456,18.5216667 10.7036,14.9803333" id="Fill-4"></path>
            </g>
            <path d="M30,54.0865385 C34.3269447,54.0865385 38.3653659,52.9807803 42.1153846,50.7692308 C45.769249,48.6538356 48.6538356,45.769249 50.7692308,42.1153846 C52.9807803,38.3653659 54.0865385,34.3269447 54.0865385,30 C54.0865385,25.6730553 52.9807803,21.6346341 50.7692308,17.8846154 C48.6538356,14.230751 45.769249,11.3461644 42.1153846,9.23076923 C38.3653659,7.01921971 34.3269447,5.91346154 30,5.91346154 C25.6730553,5.91346154 21.6346341,7.01921971 17.8846154,9.23076923 C14.230751,11.3461644 11.3461644,14.230751 9.23076923,17.8846154 C7.01921971,21.6346341 5.91346154,25.6730553 5.91346154,30 C5.91346154,34.3269447 7.01921971,38.3653659 9.23076923,42.1153846 C11.3461644,45.769249 14.230751,48.6538356 17.8846154,50.7692308 C21.6346341,52.9807803 25.6730553,54.0865385 30,54.0865385 Z M30,0 C35.4807966,0 40.5528613,1.37017861 45.2163462,4.11057692 C49.7355995,6.70674375 53.2932563,10.2644005 55.8894231,14.7836538 C58.6298214,19.4471387 60,24.5192034 60,30 C60,35.4807966 58.6298214,40.5528613 55.8894231,45.2163462 C53.2932563,49.7355995 49.7355995,53.2932563 45.2163462,55.8894231 C40.5528613,58.6298214 35.4807966,60 30,60 C24.5192034,60 19.4471387,58.6298214 14.7836538,55.8894231 C10.2644005,53.2451791 6.70674375,49.6634841 4.11057692,45.1442308 C1.37017861,40.4807459 0,35.4327195 0,30 C0,24.5672805 1.37017861,19.5192541 4.11057692,14.8557692 C6.75482091,10.3365159 10.3365159,6.75482091 14.8557692,4.11057692 C19.5192541,1.37017861 24.5672805,0 30,0 Z" id="icon/warning"></path>
        </g>
    </g>
</svg>