<?xml version="1.0" encoding="UTF-8"?>
<svg width="24px" height="24px" viewBox="0 0 24 24" version="1.1" xmlns="http://www.w3.org/2000/svg" xmlns:xlink="http://www.w3.org/1999/xlink">
    <!-- Generator: Sketch 53.2 (72643) - https://sketchapp.com -->
    <title>icon/bianjizhebidangqian copy 12</title>
    <desc>Created with Sketch.</desc>
    <g id="icon/bianjizhebidangqian-copy-12" stroke="none" stroke-width="1" fill="none" fill-rule="evenodd">
        <g id="riqi" transform="translate(3.000000, 3.000000)" fill="#DCE0F2">
            <path d="M17.9752577,11.604968 L15.8639175,12.0657068 L15.8639175,7.41855671 L2.14020619,7.41855671 L2.14020619,15.8639175 L7,15.8639175 L7,17.9752577 L1.08453609,17.9752577 C0.804554971,17.9752577 0.536041144,17.8640357 0.338064591,17.6660591 C0.140088039,17.4680826 0.0288659691,17.1995688 0.0288659691,16.9195876 L0.0288659691,4.2515464 C0.0288659691,3.0854854 0.974145182,2.14020619 2.14020619,2.14020619 L3.19587628,2.14020619 L3.19587628,0.0288659691 L5.30721649,0.0288659691 L5.30721649,2.14020619 L12.6969072,2.14020619 L12.6969072,0.0288659691 L14.8082474,0.0288659691 L14.8082474,2.14020619 L15.8639175,2.14020619 C17.0299785,2.14020619 17.9752577,3.0854854 17.9752577,4.2515464 L17.9752577,7.41855671 L17.9752577,11.604968 Z M4.2515464,9.5298969 L7.41855671,9.5298969 L7.41855671,12.6969072 L4.2515464,12.6969072 L4.2515464,9.5298969 Z" id="Combined-Shape"></path>
        </g>
        <polygon id="Rectangle" fill="#DCE0F2" points="11 18 15 17 15 23 11 22"></polygon>
        <polygon id="Rectangle-Copy" fill="#DCE0F2" points="16 18.6666667 18 18 18 22 16 21.3333333"></polygon>
        <polygon id="Rectangle-Copy-2" fill="#DCE0F2" points="19 18.6666667 21 18 21 22 19 21.3333333"></polygon>
    </g>
</svg>