<?xml version="1.0" encoding="UTF-8"?>
<svg width="20px" height="20px" viewBox="0 0 20 20" version="1.1" xmlns="http://www.w3.org/2000/svg" xmlns:xlink="http://www.w3.org/1999/xlink">
    <!-- Generator: Sketch 53.2 (72643) - https://sketchapp.com -->
    <title>icon/N Copy 2</title>
    <desc>Created with Sketch.</desc>
    <g id="icon/N-Copy-2" stroke="none" stroke-width="1" fill="none" fill-rule="evenodd">
        <g id="Rectangle" transform="translate(13.000000, 1.000000)" fill="#DCE0F2">
            <g id="Group">
                <g id="icon/zhankai">
                    <polygon id="ion-android-add---Ionicons" points="6 3.65625 3.65625 3.65625 3.65625 6 2.34375 6 2.34375 3.65625 0 3.65625 0 2.34375 2.34375 2.34375 2.34375 1.42108547e-14 3.65625 1.42108547e-14 3.65625 2.34375 6 2.34375"></polygon>
                </g>
            </g>
        </g>
        <g id="tudiliuzhuanshijianbiao" transform="translate(2.000000, 7.000000)" fill="#DCE0F2" fill-rule="nonzero">
            <path d="M11.6410963,11 C9.78590605,11 8.28219254,9.47516876 8.28219254,7.59392478 C8.28219254,5.71215043 9.78590605,4.18731919 11.6410963,4.18731919 C13.4962865,4.18731919 15,5.71215043 15,7.59392478 C15,9.47516876 13.4962865,11 11.6410963,11 L11.6410963,11 Z M0.784546176,5.03326904 C0.351476682,5.03326904 0,4.67685632 0,4.23770492 C0,3.79855352 0.351476682,3.44214078 0.784546176,3.44214078 L7.78165209,3.44214078 C8.21472158,3.44214078 8.56619826,3.79855352 8.56619826,4.23770492 C8.56619826,4.67685632 8.21472158,5.03326904 7.78165209,5.03326904 L0.784546176,5.03326904 Z M6.26695492,8.61861139 L0.784546176,8.61861139 C0.351476682,8.61861139 0,8.26219864 0,7.82304725 C0,7.38389585 0.351476682,7.02748313 0.784546176,7.02748313 L6.26695492,7.02748313 C6.70002441,7.02748313 7.0515011,7.38389585 7.0515011,7.82304725 C7.0515011,8.26219864 6.70002441,8.61861139 6.26695492,8.61861139 L6.26695492,8.61861139 Z M11.308623,0 C11.6902631,0 12,0.356412721 12,0.79556412 C12,1.23471552 11.6902631,1.59112824 11.308623,1.59112824 L0.691376986,1.59112824 C0.309736886,1.59112824 0,1.23471552 0,0.79556412 C0,0.356412721 0.309736886,0 0.691376986,0 L11.308623,0 Z M13.547805,7.49426711 L11.6518184,7.49426711 L11.6518184,6.10202989 C11.6518184,5.80873192 11.4180236,5.5716538 11.1287876,5.5716538 C10.8395516,5.5716538 10.6057568,5.80873192 10.6057568,6.10202989 L10.6057568,8.0246432 C10.6057568,8.31794117 10.8395516,8.55501927 11.1287876,8.55501927 L13.547805,8.55501927 C13.837041,8.55501927 14.0708358,8.31794117 14.0708358,8.0246432 C14.0708358,7.73134523 13.837041,7.49426711 13.547805,7.49426711 L13.547805,7.49426711 Z" id="Shape"></path>
        </g>
    </g>
</svg>