<?xml version="1.0" encoding="UTF-8"?>
<svg width="20px" height="20px" viewBox="0 0 20 20" version="1.1" xmlns="http://www.w3.org/2000/svg" xmlns:xlink="http://www.w3.org/1999/xlink">
    <!-- Generator: Sketch 53.2 (72643) - https://sketchapp.com -->
    <title>icon/bukejian copy 8</title>
    <desc>Created with Sketch.</desc>
    <g id="icon/bukejian-copy-8" stroke="none" stroke-width="1" fill="none" fill-rule="evenodd">
        <g id="biaoji2" transform="translate(5.000000, 4.000000)" fill="#DCE0F2">
            <path d="M8.51397779,1.42725184 C7.57353633,0.508938419 6.32318336,0.00321691176 4.99319936,0.00321691176 C3.66321536,0.00321691176 2.41283886,0.508961397 1.47242093,1.42725184 C0.53197948,2.34556526 0.0140719127,3.56649816 0.0140719127,4.86518842 C0.0140719127,6.16387868 0.532003012,7.38483456 1.47242093,8.303125 C2.23828125,9.05096507 3.20971386,9.52511489 4.26230704,9.6754136 L4.26230704,12.9212776 L5.72411521,12.9212776 L5.72411521,9.6754136 C6.77668486,9.52513787 7.74811747,9.05098805 8.51400132,8.303125 C9.45441924,7.38481158 9.97232681,6.1638557 9.97232681,4.86518842 C9.97232681,3.56649816 9.45439571,2.34556526 8.51397779,1.42725184 Z M7.2720256,5.80519301 C7.24084318,5.87717037 7.20608491,5.94762014 7.16787462,6.01629136 C6.99690215,6.32356598 6.7598261,6.59105206 6.47293863,6.80036765 C6.40933401,6.84680205 6.34348763,6.8902342 6.27562594,6.93051471 C6.20744604,6.97097832 6.13729409,7.00818512 6.06541792,7.04200368 C5.80783792,7.16324861 5.53054542,7.23961886 5.24604669,7.26767004 C5.16290945,7.27591912 5.07854857,7.28014706 4.99317583,7.28014706 C4.90780309,7.28014706 4.82344221,7.27591912 4.74030497,7.26767004 C4.45580623,7.23961886 4.17851374,7.16324861 3.92093373,7.04200368 C3.70587522,6.94070502 3.50692502,6.80961097 3.33024285,6.65278033 C3.18356069,6.52260477 3.05333861,6.37577597 2.94234752,6.2154182 C2.8529392,6.0861952 2.77657467,5.94881052 2.71432605,5.80519301 C2.58918486,5.51626838 2.51997835,5.19862132 2.51997835,4.86516544 C2.51997835,4.53173254 2.58918486,4.2140625 2.71432605,3.92513787 C2.73759883,3.87141544 2.76343656,3.81902574 2.79049793,3.76737132 C2.80641541,3.73694501 2.82299326,3.70685243 2.84022026,3.67711397 C2.87231739,3.62176011 2.90603822,3.56744026 2.94237105,3.51491268 C3.05332415,3.35452647 3.18354997,3.20769345 3.33026638,3.07755055 C3.56673515,2.8674865 3.84267783,2.70419345 4.14281344,2.59671415 C4.33547456,2.52787943 4.53619634,2.48284546 4.74030497,2.46266085 C4.82344221,2.45441176 4.90780309,2.45018382 4.99317583,2.45018382 C5.07854857,2.45018382 5.16290945,2.45441176 5.24604669,2.46266085 C5.45015179,2.48286637 5.65087093,2.52789975 5.84353822,2.59671415 C6.14367824,2.70418449 6.4196226,2.86747854 6.65608528,3.07755055 C6.80277937,3.20771473 6.93300276,3.354545 7.04398061,3.51491268 C7.08031344,3.56741728 7.11403426,3.62176011 7.1461314,3.67711397 C7.16336327,3.7068498 7.17994118,3.73694248 7.19585373,3.76737132 C7.2229151,3.81902574 7.24875282,3.87141544 7.2720256,3.92513787 C7.39716679,4.2140625 7.46637331,4.53170956 7.46637331,4.86516544 C7.46637331,5.19862132 7.39716679,5.51629136 7.2720256,5.80519301 L7.2720256,5.80519301 Z" id="Shape"></path>
        </g>
    </g>
</svg>