<?xml version="1.0" encoding="UTF-8"?>
<svg width="24px" height="24px" viewBox="0 0 24 24" version="1.1" xmlns="http://www.w3.org/2000/svg" xmlns:xlink="http://www.w3.org/1999/xlink">
    <!-- Generator: Sketch 53.2 (72643) - https://sketchapp.com -->
    <title>icon/bianjizhebidangqian copy 3</title>
    <desc>Created with Sketch.</desc>
    <g id="icon/bianjizhebidangqian-copy-3" stroke="none" stroke-width="1" fill="none" fill-rule="evenodd">
        <path d="M15.9532313,4.1814488 L13.4287144,6.70596577 C13.3522505,6.67256451 13.2744537,6.64180632 13.1954649,6.61377389 C12.9245999,6.51788804 12.6424152,6.45513862 12.3554702,6.42698428 C12.2385901,6.41549003 12.1199898,6.40959882 11.9999669,6.40959882 C11.879944,6.40959882 11.7613437,6.41549003 11.6444637,6.42698428 C11.3575137,6.45510948 11.0753252,6.51785973 10.804469,6.61377389 C10.3825177,6.76353533 9.99457845,6.99106753 9.66213438,7.28377037 C9.45587036,7.46511123 9.27278994,7.66970807 9.11680443,7.8931899 C9.06572524,7.96638171 9.01831819,8.04207089 8.97319382,8.11920085 C8.94897493,8.16063836 8.92566864,8.2025693 8.90329075,8.24496526 C8.86524601,8.31694042 8.82892156,8.38994013 8.79620309,8.46479685 C8.62027099,8.86738386 8.52297571,9.31002465 8.52297571,9.7746294 C8.52297571,10.2392662 8.62027099,10.6818749 8.79620309,11.0844619 C8.82168761,11.1427372 8.84885502,11.2002761 8.87766812,11.257012 L6.35349026,13.7811899 C5.47470783,12.6262842 5,11.2357804 5,9.77466142 C5,7.965069 5.7281101,6.26382352 7.05024741,4.98424743 C8.37235164,3.70470336 10.130217,3 12,3 C13.4318579,3 14.7980642,3.41324157 15.9532313,4.1814488 Z M7.78100371,15.1821035 L10.2693077,12.6937995 C10.3421989,12.7343659 10.4166538,12.7724062 10.4925352,12.8078315 C10.8546589,12.9767739 11.2444958,13.0831881 11.6444637,13.1222745 C11.7613437,13.1337688 11.879944,13.13966 11.9999669,13.13966 C12.1199898,13.13966 12.2385901,13.1337688 12.3554702,13.1222745 C12.7554381,13.0831881 13.1452749,12.9767739 13.5073986,12.8078315 C13.6084471,12.7607088 13.7070715,12.7088649 13.8029235,12.652483 C13.8983282,12.5963562 13.9908995,12.5358379 14.0803193,12.4711363 C14.4836454,12.1794764 14.8169433,11.8067618 15.0573081,11.378606 C15.1110268,11.2829196 15.1598924,11.184755 15.2037307,11.0844619 C15.3796628,10.681907 15.4769581,10.2392662 15.4769581,9.7746294 C15.4769581,9.30999264 15.3796628,8.86738386 15.2037307,8.46479685 C15.1710123,8.38994013 15.1346878,8.31694042 15.0966431,8.24496526 C15.0742721,8.20256578 15.0509658,8.1606347 15.02674,8.11920085 C15.0043284,8.08089319 14.9813537,8.04293305 14.9576456,8.00546162 L17.4459987,5.51710852 C18.4528664,6.7188247 19,8.2060366 19,9.77466142 C19,11.5842218 18.2718899,13.2854993 16.9497857,14.5650754 C15.8730535,15.6071463 14.5073467,16.2678257 13.0275718,16.4772196 L13.0275718,21 L10.9724613,21 L10.9724613,16.4772196 C9.8099624,16.3127 8.71787838,15.8696998 7.78100371,15.1821035 Z" id="Combined-Shape" fill="#DCE0F2" opacity="0.5"></path>
        <polygon id="Line-8" fill="#DCE0F2" points="6 19.7789001 4.58578644 18.3646865 20.1346801 2.58578644 21.5488937 4"></polygon>
    </g>
</svg>