<?xml version="1.0" encoding="UTF-8"?>
<svg width="24px" height="24px" viewBox="0 0 24 24" version="1.1" xmlns="http://www.w3.org/2000/svg" xmlns:xlink="http://www.w3.org/1999/xlink">
    <!-- Generator: Sketch 53.2 (72643) - https://sketchapp.com -->
    <title>icon/dayin</title>
    <desc>Created with Sketch.</desc>
    <g id="icon/dayin" stroke="none" stroke-width="1" fill="none" fill-rule="evenodd">
        <g id="dayin" transform="translate(4.000000, 4.000000)" fill="#DCE0F2">
            <path d="M4.84051627,17 L12.1270483,17 C12.7967452,17 13.3176207,16.4371493 13.3176207,15.7655443 L13.3176207,12.1346801 L3.64421998,12.1346801 L3.64421998,15.7655443 C3.64421998,16.4371493 4.1708193,17 4.84051627,17 Z M12.1270483,0 L4.84051627,0 C4.1708193,0 3.64421998,0.522783389 3.64421998,1.19438833 L3.64421998,4.80808081 L13.3176207,4.80808081 L13.3176207,1.19438833 C13.3176207,0.522783389 12.7967452,0 12.1270483,0 Z" id="Shape"></path>
            <path d="M14.5387205,4.80808081 L14.5387205,6.04826038 L2.42312009,6.04826038 L2.42312009,4.80808081 L1.19820426,4.80808081 C0.526599327,4.80808081 0,5.38047138 0,6.05207632 L0,14.5520763 C0,15.2236813 0.526599327,15.7789001 1.19820426,15.7789001 L2.42312009,15.7789001 L2.42312009,10.9135802 L14.5387205,10.9135802 L14.5387205,15.7789001 L15.7693603,15.7789001 C16.4390572,15.7789001 17,15.2236813 17,14.5520763 L17,6.05207632 C17,5.38047138 16.4409652,4.80808081 15.7693603,4.80808081 L14.5387205,4.80808081 Z M14.5387205,8.50953984 L10.9135802,8.50953984 L10.9135802,7.26936027 L14.5387205,7.26936027 L14.5387205,8.50953984 Z" id="Shape"></path>
        </g>
    </g>
</svg>