<?xml version="1.0" encoding="UTF-8"?>
<svg width="20px" height="20px" viewBox="0 0 20 20" version="1.1" xmlns="http://www.w3.org/2000/svg" xmlns:xlink="http://www.w3.org/1999/xlink">
    <!-- Generator: Sketch 53.2 (72643) - https://sketchapp.com -->
    <title>icon/N Copy 3</title>
    <desc>Created with Sketch.</desc>
    <g id="icon/N-Copy-3" stroke="none" stroke-width="1" fill="none" fill-rule="evenodd">
        <g id="21chakanjilu" transform="translate(3.000000, 2.000000)" fill="#DCE0F2">
            <path d="M9.47566299,3.29181182 C8.9617378,3.15511731 8.60385108,2.71234595 8.60385108,2.16111049 L8.60385108,1.70125232 C8.60385108,0.761477563 7.86946767,0 6.96473021,0 L6.93180463,0 C6.02635141,0 5.29339951,0.761477563 5.29339951,1.70125232 L5.29339951,2.16556791 C5.29339951,2.71308885 4.93766014,3.15511731 4.42731371,3.29404053 C3.7623603,3.47308063 3.27205557,4.13872345 3.27205557,4.88534293 L3.27205557,4.90614427 C3.27205557,5.18399071 10.6380789,5.18399071 10.6380789,4.90614427 L10.6380789,4.88534293 C10.6380789,4.13649474 10.1441953,3.46936609 9.47566299,3.29181182 Z M8.84150585,12.3641203 C8.84150585,12.7908863 8.53465981,13.1363636 8.15475524,13.1363636 L4.37118066,13.1363636 C3.99299508,13.1363636 3.68528949,12.7908863 3.68528949,12.3641203 C3.68528949,11.9373541 3.99299508,11.590909 4.37118066,11.590909 L8.15475524,11.590909 C8.53465981,11.590909 8.84150585,11.9373541 8.84150585,12.3641203 Z M10.3147105,7.72775654 C10.3147105,8.15452273 10.0527243,8.5 9.72999834,8.5 L4.26926993,8.5 C3.9472757,8.5 3.68528949,8.15452273 3.68528949,7.72775654 C3.68528949,7.30099048 3.9472757,6.95454542 4.26926993,6.95454542 L9.72999834,6.95454542 C10.0527243,6.95454542 10.3147105,7.30099048 10.3147105,7.72775654 Z M10.3147105,10.0454546 C10.3147105,10.4719536 10.0527243,10.8181818 9.72999834,10.8181818 L4.26926993,10.8181818 C3.9472757,10.8181818 3.68528949,10.4719536 3.68528949,10.0454546 C3.68528949,9.61895554 3.9472757,9.27272723 4.26926993,9.27272723 L9.72999834,9.27272723 C10.0527243,9.27272723 10.3147105,9.61895554 10.3147105,10.0454546 Z" id="Shape"></path>
            <path d="M10.2053203,1.97272728 L10.2053203,2.56623882 C10.2053203,2.83883437 10.4271976,3.06027225 10.7004917,3.06027225 L12.0367051,3.06027225 C12.4039814,3.06027225 12.7022146,3.3573455 12.7022146,3.72450351 L12.7022146,15.0497661 C12.7022146,15.4169241 12.4039814,15.7139973 12.0367051,15.7139973 L1.96406818,15.7139973 C1.5968372,15.7139973 1.29933185,15.416968 1.29933185,15.0497661 L1.29933185,3.72450351 C1.29933185,3.35730165 1.5968372,3.06027225 1.96406818,3.06027225 L3.30028158,3.06027225 C3.57426363,3.06027225 3.79622616,2.83891926 3.79622616,2.56623882 L3.79622616,1.97272728 L1.0717126,1.97272728 C0.591267076,1.97272728 0.202277902,2.36064829 0.202277902,2.83922532 L0.202277902,15.933502 C0.202277902,16.412079 0.591267095,16.8 1.0717126,16.8 L12.9282874,16.8 C13.4087329,16.8 13.7977221,16.412079 13.7977221,15.933502 L13.7977221,2.83922532 C13.7977221,2.36064829 13.4087329,1.97272728 12.9282874,1.97272728 L10.2053203,1.97272728 Z" id="Path" fill-rule="nonzero"></path>
        </g>
    </g>
</svg>