<?xml version="1.0" encoding="UTF-8"?>
<svg width="24px" height="24px" viewBox="0 0 24 24" version="1.1" xmlns="http://www.w3.org/2000/svg" xmlns:xlink="http://www.w3.org/1999/xlink">
    <!-- Generator: Sketch 53.2 (72643) - https://sketchapp.com -->
    <title>icon/piliangshanchu</title>
    <desc>Created with Sketch.</desc>
    <g id="icon/piliangshanchu" stroke="none" stroke-width="1" fill="none" fill-rule="evenodd">
        <g id="delet" transform="translate(5.000000, 3.000000)"></g>
        <path d="M14.6195693,15.9919128 L12.8732655,16.372993 L12.8732655,11.071069 C12.8732655,10.5877986 12.4818643,10.1961608 12,10.1961608 C11.5175782,10.1961608 11.1267345,10.5877782 11.1267345,11.0710487 L11.1267345,16.7541228 L10,17 L10,20.9880152 L6.76032448,20.9880152 C6.27817109,20.9880152 5.887059,20.5958493 5.887059,20.1133711 L5.887059,8.44636479 L18.112941,8.44636479 L18.1129204,9.32127296 L18.112941,9.32127296 L18.112941,15.2295857 L16.3663894,15.61072 L16.3663894,11.071069 C16.3663894,10.5877986 15.9747198,10.1961608 15.4928555,10.1961608 C15.0106814,10.1961608 14.6195693,10.5877782 14.6195693,11.0710487 L14.6195693,15.9919128 Z M9.38016224,11.071069 C9.38016224,10.5877986 8.98878171,10.1961608 8.5069174,10.1961608 C8.02476401,10.1961608 7.63363127,10.5877782 7.63363127,11.0710487 L7.63363127,18.363311 C7.63363127,18.8460533 8.02474336,19.238463 8.50689676,19.238463 C8.98849263,19.238463 9.38016224,18.8468455 9.38016224,18.363311 L9.38016224,11.071069 Z M5.01375221,5.95512848 C5.01375221,5.47212213 5.40459587,5.0794281 5.88703835,5.0794281 L10.2534277,5.0794281 L10.2534277,4.204784 C10.2534277,3.72124951 10.6445398,3.32961176 11.1266726,3.32961176 L12.8732448,3.32961176 C13.3548407,3.32961176 13.7465103,3.72124951 13.7465103,4.204784 L13.7465103,5.0794281 L18.1129204,5.0794281 C18.594826,5.0794281 18.9862065,5.47106585 18.9862065,5.95512848 L18.9862065,6.83030072 L5.01375221,6.83030072 L5.01375221,5.95512848 Z" id="Combined-Shape" fill="#DCE0F2"></path>
        <polygon id="Rectangle" fill="#DCE0F2" points="11 18 15 17 15 23 11 22"></polygon>
        <polygon id="Rectangle-Copy" fill="#DCE0F2" points="16 18.6666667 18 18 18 22 16 21.3333333"></polygon>
        <polygon id="Rectangle-Copy-2" fill="#DCE0F2" points="19 18.6666667 21 18 21 22 19 21.3333333"></polygon>
    </g>
</svg>