<?xml version="1.0" encoding="UTF-8"?>
<svg width="24px" height="24px" viewBox="0 0 24 24" version="1.1" xmlns="http://www.w3.org/2000/svg" xmlns:xlink="http://www.w3.org/1999/xlink">
    <!-- Generator: Sketch 53.2 (72643) - https://sketchapp.com -->
    <title>icon/pingyigouhuafanwei copy 2</title>
    <desc>Created with Sketch.</desc>
    <g id="icon/pingyigouhuafanwei-copy-2" stroke="none" stroke-width="1" fill="none" fill-rule="evenodd">
        <g id="icon/bukejian-copy-5" transform="translate(5.000000, 3.000000)" fill="#DCE0F2">
            <path d="M11.6143498,6.59354537 L11.6143498,6.61739944 L13.058296,6.61739944 C13.5762332,6.61739944 14,7.07202993 14,7.62768943 L14,16.98971 C14,17.5453695 13.5762332,18 13.058296,18 L0.941704036,18 C0.423766816,18 -6.90114632e-13,17.5453695 -6.90114632e-13,16.98971 L-6.90114632e-13,7.62768943 C-6.90114632e-13,7.07202993 0.423766816,6.61739944 0.941704036,6.61739944 L2.47982063,6.61739944 L2.47982063,5.32422825 C2.47040359,5.18952292 2.46412556,5.05481759 2.46412556,4.91674462 C2.46412556,2.20243218 4.51704036,-2.13162821e-14 7.0470852,-2.13162821e-14 C9.14892029,-2.13162821e-14 10.9214661,1.51999928 11.4612642,3.59073901 L9.6351084,3.59073901 C9.16894027,2.55196796 8.17928755,1.83536015 7.03139013,1.83536015 C5.45560538,1.83536015 4.17802691,3.1857811 4.14349776,4.86623012 L4.14349776,6.61739944 L9.91928251,6.61739944 L9.91928251,6.59354537 L11.6143498,6.59354537 Z M7.94170404,12.4333022 C8.30269058,12.1605239 8.53811659,11.709261 8.53811659,11.1973807 C8.53811659,10.35884 7.90717489,9.68194574 7.12556054,9.68194574 C6.34394619,9.68194574 5.71300448,10.35884 5.71300448,11.1973807 C5.71300448,11.7227315 5.96098655,12.1840973 6.34080717,12.4568756 L6.34080717,14.7333957 L7.94170404,14.7333957 L7.94170404,12.4333022 Z" id="Combined-Shape"></path>
        </g>
    </g>
</svg>