<?xml version="1.0" encoding="UTF-8"?>
<svg width="24px" height="24px" viewBox="0 0 24 24" version="1.1" xmlns="http://www.w3.org/2000/svg" xmlns:xlink="http://www.w3.org/1999/xlink">
    <!-- Generator: Sketch 53.2 (72643) - https://sketchapp.com -->
    <title>icon/tianjia copy 3</title>
    <desc>Created with Sketch.</desc>
    <g id="icon/tianjia-copy-3" stroke="none" stroke-width="1" fill="none" fill-rule="evenodd">
        <g id="shanchu-3" transform="translate(5.000000, 3.000000)" fill="#DCE0F2">
            <path d="M9.44874063,2.375948 L4.55898351,2.375948 L4.81583208,1.20571991 L9.19189205,1.20571991 L9.44874063,2.375948 Z M10.5297046,2.39081552 L12.2414573,2.39081552 L12.2414363,2.39081552 C13.2058621,2.39081552 13.9873013,3.18646457 13.9872804,4.16845894 L13.9872804,4.76100675 L0.0204017991,4.76100675 L0.0204017991,4.16845894 C0.0204017991,3.18646457 0.801862069,2.39081552 1.76626687,2.39081552 L3.47760882,2.39081552 L3.68210495,0.90135658 C3.74916642,0.41643982 4.19586507,0.020624297 4.67610495,0.020624297 L9.33168216,0.020624297 C9.81190105,0.020624297 10.2585787,0.416418448 10.3251154,0.900758155 L10.5297046,2.39081552 Z M12.5324348,5.94605962 L1.47531034,5.94605962 C0.835382309,5.94605962 0.358563718,6.47726884 0.416536732,7.12651744 L1.3701949,17.8015467 C1.42758021,18.4508166 1.99931334,18.9820045 2.63922039,18.9820045 L11.3685457,18.9820045 C12.0084528,18.9820045 12.5801859,18.4507739 12.6375712,17.8015467 L13.5912084,7.12649606 C13.6491604,6.47726884 13.1723418,5.94605962 12.5324348,5.94605962 L12.5324348,5.94605962 Z M4.67604198,16.611856 L2.93017691,16.611856 L2.34822189,8.31625084 L4.67604198,8.31625084 L4.67604198,16.611856 Z M8.1677931,16.611856 L5.83997301,16.611856 L5.83997301,8.31625084 L8.1677931,8.31625084 L8.1677931,16.611856 L8.1677931,16.611856 Z M11.0775262,16.611856 L9.33166117,16.611856 L9.33166117,8.31625084 L11.6594603,8.31625084 L11.0775472,16.611856 L11.0775262,16.611856 Z" id="Shape"></path>
        </g>
    </g>
</svg>