<?xml version="1.0" encoding="UTF-8"?>
<svg width="20px" height="20px" viewBox="0 0 20 20" version="1.1" xmlns="http://www.w3.org/2000/svg" xmlns:xlink="http://www.w3.org/1999/xlink">
    <!-- Generator: Sketch 53.2 (72643) - https://sketchapp.com -->
    <title>icon/nv</title>
    <desc>Created with Sketch.</desc>
    <g id="icon/nv" stroke="none" stroke-width="1" fill="none" fill-rule="evenodd">
        <rect id="Rectangle" fill-rule="nonzero" x="0" y="0" width="20" height="20"></rect>
        <path d="M11.2941176,13.5660377 L13.1470588,13.5660377 L13.1470588,15.1509434 L11.2941176,15.1509434 L11.2941176,17 L9.70588235,17 L9.70588235,15.1509434 L7.85294118,15.1509434 L7.85294118,13.5660377 L9.70588235,13.5660377 L9.70588235,11.9114315 C7.59934427,11.5371474 6,9.70023857 6,7.49056604 C6,5.0104949 8.01471863,3 10.5,3 C12.9852814,3 15,5.0104949 15,7.49056604 C15,9.70023857 13.4006557,11.5371474 11.2941176,11.9114315 L11.2941176,13.5660377 Z M10.5,10.3962264 C12.1081232,10.3962264 13.4117647,9.09531795 13.4117647,7.49056604 C13.4117647,5.88581412 12.1081232,4.58490566 10.5,4.58490566 C8.89187676,4.58490566 7.58823529,5.88581412 7.58823529,7.49056604 C7.58823529,9.09531795 8.89187676,10.3962264 10.5,10.3962264 Z" id="Combined-Shape" fill="#C05F90" fill-rule="nonzero"></path>
    </g>
</svg>