<?xml version="1.0" encoding="UTF-8"?>
<svg width="24px" height="24px" viewBox="0 0 24 24" version="1.1" xmlns="http://www.w3.org/2000/svg" xmlns:xlink="http://www.w3.org/1999/xlink">
    <!-- Generator: Sketch 53.2 (72643) - https://sketchapp.com -->
    <title>icon/pizhun2</title>
    <desc>Created with Sketch.</desc>
    <g id="icon/pizhun2" stroke="none" stroke-width="1" fill="none" fill-rule="evenodd">
        <g id="suo" transform="translate(5.000000, 3.000000)" fill="#DCE0F2">
            <path d="M13.058296,6.61739944 L11.6143498,6.61739944 L11.6143498,5.32422825 C11.6237668,5.18952292 11.6300448,5.05481759 11.6300448,4.91674462 C11.6300448,2.20243218 9.57713004,0 7.0470852,0 C4.51704036,0 2.46412556,2.20243218 2.46412556,4.91674462 C2.46412556,5.05481759 2.47040359,5.18952292 2.47982063,5.32422825 L2.47982063,6.61739944 L0.941704036,6.61739944 C0.423766816,6.61739944 0,7.07202993 0,7.62768943 L0,16.98971 C0,17.5453695 0.423766816,18 0.941704036,18 L13.058296,18 C13.5762332,18 14,17.5453695 14,16.98971 L14,7.62768943 C14,7.07202993 13.5762332,6.61739944 13.058296,6.61739944 Z M7.94170404,12.4333022 L7.94170404,14.7333957 L6.34080717,14.7333957 L6.34080717,12.4568756 C5.96098655,12.1840973 5.71300448,11.7227315 5.71300448,11.1973807 C5.71300448,10.35884 6.34394619,9.68194574 7.12556054,9.68194574 C7.90717489,9.68194574 8.53811659,10.35884 8.53811659,11.1973807 C8.53811659,11.709261 8.30269058,12.1605239 7.94170404,12.4333022 Z M9.91928251,6.61739944 L4.14349776,6.61739944 L4.14349776,4.86623012 C4.17802691,3.1857811 5.45560538,1.83536015 7.03139013,1.83536015 C8.60717489,1.83536015 9.88475336,3.1857811 9.91928251,4.86623012 L9.91928251,6.61739944 L9.91928251,6.61739944 Z" id="Shape"></path>
        </g>
    </g>
</svg>