<?xml version="1.0" encoding="UTF-8"?>
<svg width="24px" height="24px" viewBox="0 0 24 24" version="1.1" xmlns="http://www.w3.org/2000/svg" xmlns:xlink="http://www.w3.org/1999/xlink">
    <!-- Generator: Sketch 53.2 (72643) - https://sketchapp.com -->
    <title>icon/jihuo2</title>
    <desc>Created with Sketch.</desc>
    <g id="icon/jihuo2" stroke="none" stroke-width="1" fill="none" fill-rule="evenodd">
        <g id="Group" transform="translate(1.000000, 7.000000)">
            <path d="M5.5,1.1 C3.0699471,1.1 1.1,3.0699471 1.1,5.5 C1.1,7.9300529 3.0699471,9.9 5.5,9.9 L16.5,9.9 C18.9300529,9.9 20.9,7.9300529 20.9,5.5 C20.9,3.0699471 18.9300529,1.1 16.5,1.1 L5.5,1.1 Z M5.5,0 L16.5,0 C19.5375661,-9.76996262e-16 22,2.46243388 22,5.5 C22,8.53756612 19.5375661,11 16.5,11 L5.5,11 C2.46243388,11 4.88498131e-16,8.53756612 0,5.5 C-4.88498131e-16,2.46243388 2.46243388,9.76996262e-16 5.5,0 Z" id="Rectangle-Copy-3" fill="#DCE0F2" fill-rule="nonzero"></path>
            <circle id="Oval-Copy" fill="#DCE0F2" opacity="0.5" cx="16.5" cy="5.5" r="3.3"></circle>
            <polygon id="Path-10-Copy" fill="#47BE68" points="10.5951484 2.487716 11.4048516 3.23228339 6.5283451 8.53539418 3.94082908 4.61109046 4.85917092 4.00557559 6.6716549 6.75444267"></polygon>
        </g>
    </g>
</svg>