<?xml version="1.0" encoding="UTF-8"?>
<svg width="26px" height="26px" viewBox="0 0 26 26" version="1.1" xmlns="http://www.w3.org/2000/svg" xmlns:xlink="http://www.w3.org/1999/xlink">
    <!-- Generator: Sketch 53.2 (72643) - https://sketchapp.com -->
    <title>icon/daochu</title>
    <desc>Created with Sketch.</desc>
    <g id="icon/daochu" stroke="none" stroke-width="1" fill="none" fill-rule="evenodd">
        <rect id="Rectangle" fill-rule="nonzero" x="0" y="0" width="26" height="26"></rect>
        <path d="M21.2933682,18.506788 C21.2933682,19.3818087 20.6106148,20.0855224 19.7565438,20.0855224 L7.3840527,20.0855224 C6.52998172,20.0855224 5.84722825,19.3818086 5.84722825,18.506788 L5.84722825,12.1306267 C5.84722825,11.6309257 6.13846319,11.1364812 6.60169161,10.7924287 C7.00684643,9.82568757 7.36185787,9.13519963 7.81815758,8.49208869 L7.40376248,8.49177736 C5.5524525,8.62807341 4,10.2702939 4,12.1306267 L4,18.506788 C4,20.4788186 5.51576103,22 7.3840527,22 L19.6159473,22 C21.5240307,22 23,20.4376032 23,18.506788 L23,14.0185967 L21.2933682,15.4478043 L21.2933682,18.506788 Z M15.8072798,12.0013139 L16.0912981,11.9880077 L16.0912981,13.4348415 C16.0912981,13.6067477 16.1230283,13.8792834 16.2157398,14.1447215 C16.3704021,14.5875282 16.6261136,14.8051843 16.961958,14.7842903 C17.0438143,14.7421056 17.1331888,14.7092063 17.2397341,14.6787018 C17.2996606,14.6615445 17.5171567,14.6070709 17.4770803,14.6174438 C17.5082139,14.6093848 17.5167369,14.6074198 17.5167369,14.7390563 L17.6204125,14.5232514 L22.5565098,10.5993479 C22.8925128,10.368469 23,10.1690525 23,9.81202262 C23,9.43356128 22.8920566,9.23329833 22.6887461,9.01871667 L17.6166529,5.24266231 C17.2939345,4.97656179 17.0143305,4.95274462 16.7706491,5.05886954 C16.7252574,5.07863794 16.6962772,5.09644119 16.6753848,5.11205297 C16.2419057,5.40991083 16.0912981,5.63166961 16.0912981,6.04429097 L16.0912981,7.62302541 L15.8198421,7.62302541 C11.9217626,7.62302541 8.78028065,10.9472945 8.78028065,15.0288818 C8.78028065,15.5943761 8.84168649,16.1496753 8.95932489,16.6567901 C10.1551718,13.9595558 12.8211809,12.1412126 15.8072798,12.0013139 Z" id="Combined-Shape" fill="#DCE0F2" fill-rule="nonzero"></path>
    </g>
</svg>