<?xml version="1.0" encoding="UTF-8"?>
<svg width="24px" height="24px" viewBox="0 0 24 24" version="1.1" xmlns="http://www.w3.org/2000/svg" xmlns:xlink="http://www.w3.org/1999/xlink">
    <!-- Generator: Sketch 55.2 (78181) - https://sketchapp.com -->
    <title>icon/rrrx</title>
    <desc>Created with Sketch.</desc>
    <g id="icon/rrrx" stroke="none" stroke-width="1" fill="none" fill-rule="evenodd">
        <g id="chufangtiaoyan" transform="translate(4.000000, 3.000000)" fill="#DCE0F2">
            <path d="M13.9941463,0.00398322851 C15.1180488,0.00398322851 15.9921951,0.896226415 15.9921951,2.04339623 L15.9921951,16.9566038 C15.9921951,18.1037736 15.1180488,18.9960168 13.9941463,18.9960168 L2.00585366,18.9960168 C0.88195122,18.9960168 0.00780487805,18.1037736 0.00780487805,16.9566038 L0.00780487805,2.04339623 C0.00780487805,0.896226415 0.88195122,0.00398322851 2.00585366,0.00398322851 L13.9941463,0.00398322851 Z M7.7502439,4.97505241 L8.99902439,6.31341719 L7.7502439,7.65178197 C7.5004878,7.9067086 7.5004878,8.28909853 7.7502439,8.54402516 C7.93756098,8.79895178 8.31219512,8.79895178 8.56195122,8.54402516 L9.81073171,7.20566038 L11.0595122,8.54402516 C11.2468293,8.79895178 11.6214634,8.79895178 11.8712195,8.54402516 C12.1209756,8.28909853 12.1209756,7.9067086 11.8712195,7.65178197 L10.622439,6.31341719 L11.8712195,4.97505241 C12.1209756,4.72012579 12.1209756,4.33773585 11.8712195,4.08280922 C11.6839024,3.8278826 11.3092683,3.8278826 11.0595122,4.08280922 L9.81073171,5.421174 L8.56195122,4.08280922 C8.37463415,3.8278826 8,3.8278826 7.7502439,4.08280922 C7.5004878,4.33773585 7.5004878,4.72012579 7.7502439,4.97505241 Z M2.00585366,6.18595388 L2.06829268,6.18595388 L2.06829268,8.09790356 C2.06829268,8.41656184 2.3804878,8.73522013 2.69268293,8.73522013 C3.00487805,8.73522013 3.25463415,8.41656184 3.31707317,8.09790356 L3.31707317,6.24968553 L5.44,8.4802935 C5.6897561,8.73522013 6.06439024,8.73522013 6.31414634,8.4802935 C6.56390244,8.22536688 6.56390244,7.84297694 6.31414634,7.58805031 L4.9404878,6.18595388 C5.75219512,6.05849057 6.43902439,5.22997904 6.43902439,4.33773585 C6.43902439,3.31802935 5.62731707,2.48951782 4.62829268,2.48951782 L2.00585366,2.48951782 L2.00585366,6.18595388 Z M13.3697561,16.1280922 C13.7443902,16.1280922 13.9941463,15.809434 14.0565854,15.4907757 C14.0565854,15.1721174 13.7443902,14.8534591 13.4321951,14.8534591 L2.6302439,14.8534591 C2.25560976,14.8534591 2.00585366,15.1721174 2.00585366,15.4907757 C2.00585366,15.809434 2.31804878,16.1280922 2.6302439,16.1280922 L13.3697561,16.1280922 Z M13.3697561,13.1964361 C13.7443902,13.1964361 14.0565854,12.8777778 14.0565854,12.5591195 C14.0565854,12.2404612 13.7443902,11.9218029 13.4321951,11.9218029 L2.6302439,11.9218029 C2.25560976,11.9218029 2.00585366,12.2404612 2.00585366,12.5591195 C2.00585366,12.8777778 2.31804878,13.1964361 2.6302439,13.1964361 L13.3697561,13.1964361 Z M4.50341463,3.63668763 C4.81560976,3.63668763 5.06536585,3.95534591 5.06536585,4.27400419 C5.06536585,4.65639413 4.81560976,4.91132075 4.50341463,4.91132075 L3.19219512,4.91132075 L3.19219512,3.63668763 L4.50341463,3.63668763 Z" id="Combined-Shape"></path>
        </g>
    </g>
</svg>