<?xml version="1.0" encoding="UTF-8"?>
<svg width="24px" height="24px" viewBox="0 0 24 24" version="1.1" xmlns="http://www.w3.org/2000/svg" xmlns:xlink="http://www.w3.org/1999/xlink">
    <!-- Generator: Sketch 55.2 (78181) - https://sketchapp.com -->
    <title>icon/youhuashezhi</title>
    <desc>Created with Sketch.</desc>
    <g id="icon/youhuashezhi" stroke="none" stroke-width="1" fill="none" fill-rule="evenodd">
        <g id="shezhi" transform="translate(3.000000, 3.000000)" fill="#B3B9CC">
            <path d="M18.7704782,7.13841397 C18.6558963,6.5523591 18.3006926,6.17314713 17.8652815,6.17314713 L17.773616,6.17314713 C16.4902992,6.17314713 15.4476042,5.1274414 15.4476042,3.84041895 C15.4476042,3.42673317 15.6538516,2.95559102 15.6538516,2.95559102 C15.8830153,2.43848379 15.7111425,1.80646384 15.2413569,1.47321696 L15.2069823,1.45023441 L12.8580542,0.151720698 L12.8236796,0.140229426 C12.6747232,0.0712817955 12.5028504,0.03680798 12.3195194,0.03680798 C11.9528575,0.03680798 11.5976537,0.186194514 11.3570318,0.427511222 C11.1049517,0.691810474 10.2112132,1.46172569 9.52372203,1.46172569 C8.83623086,1.46172569 7.94249234,0.680319202 7.67895406,0.41601995 C7.43833216,0.16321197 7.08312839,0.0138254364 6.71646643,0.0138254364 C6.54459364,0.0138254364 6.38417903,0.0482992519 6.22376443,0.105755611 L6.18938987,0.117246883 L3.7717126,1.46172569 L3.73733804,1.48470823 C3.2790106,1.80646384 3.09567962,2.43848379 3.32484335,2.95559102 C3.32484335,2.95559102 3.53109069,3.42673317 3.53109069,3.84041895 C3.53109069,5.1274414 2.48839576,6.17314713 1.20507892,6.17314713 L1.11341343,6.17314713 C0.66654417,6.17314713 0.3113404,6.5523591 0.208216726,7.13841397 C0.196758539,7.18437905 0.0134275618,8.20710224 0.0134275618,9 C0.0134275618,9.79289776 0.208216726,10.8156209 0.208216726,10.861586 C0.322798587,11.4476409 0.678002356,11.8268529 1.11341343,11.8268529 L1.2165371,11.8268529 C2.49985395,11.8268529 3.54254888,12.8725586 3.54254888,14.159581 C3.54254888,14.5732668 3.34775972,15.044409 3.33630153,15.044409 C3.10713781,15.5615162 3.2790106,16.1935362 3.74879623,16.526783 L3.7717126,16.5497656 L6.07480801,17.8482793 L6.10918257,17.8597706 C6.25813899,17.9287182 6.43001178,17.963192 6.60188457,17.963192 C6.96854653,17.963192 7.33520848,17.8138055 7.5643722,17.5495062 C7.8966596,17.1932768 8.77893993,16.4578354 9.43205654,16.4578354 C10.1424641,16.4578354 11.059119,17.285207 11.3226572,17.5724888 C11.5632792,17.836788 11.9184829,17.9861746 12.2966031,17.9861746 C12.4684759,17.9861746 12.6288905,17.9517007 12.7893051,17.8827531 L12.8236796,17.8712618 L15.2184405,16.5497656 L15.2528151,16.526783 C15.7111425,16.2050274 15.8944735,15.5730075 15.6653098,15.0559002 C15.6653098,15.0559002 15.4590624,14.5847581 15.4590624,14.1710723 C15.4590624,12.8840499 16.5017574,11.8383441 17.7850742,11.8383441 L17.8767397,11.8383441 C18.323609,11.8383441 18.6788127,11.4591322 18.7933946,10.8730773 C18.7933946,10.861586 18.9881837,9.82737157 18.9881837,9.01149127 C18.9652674,8.20710224 18.7819364,7.18437905 18.7704782,7.13841397 Z M9.44351472,12.3669426 C7.58728857,12.3669426 6.0862662,10.8500948 6.0862662,9 C6.0862662,7.13841397 7.59874676,5.63305736 9.44351472,5.63305736 C11.2997409,5.63305736 12.8007633,7.14990524 12.8007633,9 C12.8007633,10.8500948 11.2997409,12.3669426 9.44351472,12.3669426 Z" id="Shape"></path>
        </g>
    </g>
</svg>