<?xml version="1.0" encoding="UTF-8"?>
<svg width="20px" height="20px" viewBox="0 0 20 20" version="1.1" xmlns="http://www.w3.org/2000/svg" xmlns:xlink="http://www.w3.org/1999/xlink">
    <!-- Generator: Sketch 52.2 (67145) - http://www.bohemiancoding.com/sketch -->
    <title>icon/nan</title>
    <desc>Created with Sketch.</desc>
    <g id="icon/nan" stroke="none" stroke-width="1" fill="none" fill-rule="evenodd">
        <rect id="Rectangle" fill-rule="nonzero" x="0" y="0" width="18" height="18"></rect>
        <g id="男-2" transform="translate(6.000000, 3.000000)" fill="#7489BE" fill-rule="nonzero">
            <path d="M5.33325211,6.36350677 L5.33325211,2.66856735 L7.01743699,3.90021383 L8.07005254,2.60014254 L4.56133404,0 L0.982441182,2.60014254 L1.96488235,3.90021383 L3.64906723,2.66856735 L3.64906723,6.29508197 C1.54383614,6.70563078 0,8.41625089 0,10.6058446 C0,13.0007128 2.03505672,14.9850321 4.49115967,14.9850321 C6.94726261,14.9850321 8.98231933,13.0007128 8.98231935,10.6058446 C9.05249372,8.48467569 7.43848321,6.70563078 5.33325211,6.36350677 Z M4.49115967,13.3428368 C2.94732353,13.3428368 1.68418486,12.1111903 1.68418488,10.6058446 C1.68418489,9.10049891 2.94732353,7.86885244 4.49115967,7.86885246 C6.0349958,7.86885247 7.29813447,9.10049892 7.29813447,10.6058446 C7.29813447,12.1111903 6.10517018,13.3428368 4.49115967,13.3428368 Z" id="Shape"></path>
        </g>
    </g>
</svg>