<?xml version="1.0" encoding="UTF-8"?>
<svg width="24px" height="24px" viewBox="0 0 24 24" version="1.1" xmlns="http://www.w3.org/2000/svg" xmlns:xlink="http://www.w3.org/1999/xlink">
    <!-- Generator: Sketch 55.2 (78181) - https://sketchapp.com -->
    <title>icon/warning2 copy</title>
    <desc>Created with Sketch.</desc>
    <g id="icon/warning2-copy" stroke="none" stroke-width="1" fill="none" fill-rule="evenodd">
        <g id="tongzhi" transform="translate(3.000000, 2.000000)" fill="#3B9B4D" fill-rule="nonzero">
            <path d="M8.38489525,2.25783972 C4.56568351,2.98813767 1.69253582,6.16616916 1.69253582,9.97601052 L1.69253582,15.75 L0.251380553,17.1066633 C-0.184775925,17.5172488 -0.0389451879,17.85 0.576979369,17.85 L18.4235976,17.85 C19.0375285,17.85 19.1852977,17.5171968 18.7491965,17.1066633 L17.3080412,15.75 L17.3080412,9.97601052 C17.3080412,6.16441394 14.4342077,2.98785014 10.6156817,2.2578138 L10.6156817,1.05256277 C10.6156817,0.469297385 10.1163032,0 9.50028849,0 C8.88552728,0 8.38489525,0.471248415 8.38489525,1.05256277 L8.38489525,2.25783972 L8.38489525,2.25783972 L8.38489525,2.25783972 L8.38489525,2.25783972 Z M11.731075,18.9 C11.731075,20.059798 10.7323179,21 9.50028849,21 C8.26825915,21 7.269502,20.059798 7.269502,18.9 L11.731075,18.9 L11.731075,18.9 Z M3.90838397,9.45584617 C3.90838397,6.56502285 6.40258198,4.22154746 9.48084253,4.22154746 C12.5584264,4.22154746 15.0533011,6.56581964 15.0533011,9.45584617 L15.0533011,15.7715475 L3.90838397,15.7715475 L3.90838397,9.45584617 L3.90838397,9.45584617 Z" id="Shape"></path>
        </g>
    </g>
</svg>