<?xml version="1.0" encoding="UTF-8"?>
<svg width="80px" height="80px" viewBox="0 0 80 80" version="1.1" xmlns="http://www.w3.org/2000/svg" xmlns:xlink="http://www.w3.org/1999/xlink">
    <!-- Generator: Sketch 55.2 (78181) - https://sketchapp.com -->
    <title>icon/wushuju</title>
    <desc>Created with Sketch.</desc>
    <g id="icon/wushuju" stroke="none" stroke-width="1" fill="none" fill-rule="evenodd">
        <rect id="Rectangle" x="0" y="0" width="80" height="80"></rect>
        <g id="konghezi" transform="translate(10.000000, 14.000000)" fill="#DCE0F2">
            <path d="M57.2724738,50.9682466 L2.72727219,50.9682466 C1.22730272,50.9682466 -7.10542736e-15,49.7610727 -7.10542736e-15,48.2857041 L-7.10542736e-15,28.166636 L6.95451384,2.07898526 C7.29546821,0.938860162 8.72715012,1.66977543e-13 10.2273009,1.66977543e-13 L49.7726869,1.66977543e-13 C51.2726564,1.66977543e-13 52.7727467,0.938860104 53.0452926,2.07898526 L59.9998669,28.166636 L59.9998669,48.2857041 C59.9998669,49.7610727 58.7725038,50.9682466 57.2725343,50.9682466 L57.2724738,50.9682466 Z M54.4088079,24.8136066 L49.9087786,6.17002589 C49.5678242,4.96279263 48.0679152,4.02399195 46.5680061,4.02399195 L12.6135582,4.02399195 C11.1135888,4.02399195 9.68172555,4.96285205 9.34095254,6.17002589 L4.84098366,24.8136066 C4.36375636,26.6242781 5.52271104,28.166636 7.50008911,28.166636 L18.068163,28.166636 L21.2044958,36.5495662 C21.4089959,37.0860152 22.1590713,37.5555345 22.8407987,37.5555345 L36.3408866,37.5555345 C37.0909015,37.5555345 37.8409165,37.1531828 37.9772499,36.5495662 L41.1135826,28.166636 L51.6135503,28.166636 C53.6591555,28.166636 54.886156,26.6242186 54.4089892,24.8136066 L54.4088079,24.8136066 Z" id="Shape"></path>
        </g>
    </g>
</svg>