<?xml version="1.0" encoding="UTF-8"?>
<svg width="18px" height="18px" viewBox="0 0 18 18" version="1.1" xmlns="http://www.w3.org/2000/svg" xmlns:xlink="http://www.w3.org/1999/xlink">
    <!-- Generator: Sketch 53.2 (72643) - https://sketchapp.com -->
    <title>icon/rili</title>
    <desc>Created with Sketch.</desc>
    <g id="icon/rili" stroke="none" stroke-width="1" fill="none" fill-rule="evenodd">
        <g id="rili-2" transform="translate(2.000000, 2.000000)" fill="#DCE0F2">
            <path d="M10.000375,1.66666667 L3.99875,1.66666667 L3.99875,0 L1.75,0 L1.75,1.66666667 L1.017625,1.66666667 C0.455874998,1.66666667 0,2.11 0,2.6475 L0,14.0191667 C0,14.5608333 0.465500002,15 1.029875,15 L12.970125,15 C13.5383106,14.998626 13.9985573,14.5602958 14,14.0191667 L14,2.6475 C14,2.10583333 13.540625,1.66666667 12.982375,1.66666667 L12.25,1.66666667 L12.25,0 L10.000375,0 L10.000375,1.66666667 Z M1.75,13.3925 L1.75,5 L12.25,5 L12.25,13.3925 L1.75,13.3925 L1.75,13.3925 Z M7.496125,8.33333333 L7.496125,11.6666667 L10.9375,11.6666667 L10.9375,8.33333333 L7.496125,8.33333333 Z" id="Shape"></path>
        </g>
    </g>
</svg>