<?xml version="1.0" encoding="UTF-8"?>
<svg width="26px" height="26px" viewBox="0 0 26 26" version="1.1" xmlns="http://www.w3.org/2000/svg" xmlns:xlink="http://www.w3.org/1999/xlink">
    <!-- Generator: Sketch 53.2 (72643) - https://sketchapp.com -->
    <title>icon/sousuo</title>
    <desc>Created with Sketch.</desc>
    <g id="icon/sousuo" stroke="none" stroke-width="1" fill="none" fill-rule="evenodd">
        <rect id="Rectangle" fill-rule="nonzero" x="0" y="0" width="26" height="26"></rect>
        <path d="M19.5396273,18.4751375 L19.5482663,18.4841756 C19.6813515,18.6305693 19.75,18.8090554 19.75,19.0078125 C19.75,19.2065696 19.6813515,19.3850557 19.5314494,19.5482663 C19.3850557,19.6813515 19.2065696,19.75 19.0078125,19.75 C18.805852,19.75 18.628067,19.678886 18.4892389,19.5400579 L15.8302425,16.8810615 C14.8525838,17.6260324 13.7398493,18 12.5,18 C10.9844583,18 9.68358089,17.4609624 8.61130924,16.3886908 C7.53903759,15.3164191 7,14.0155417 7,12.5 C7,10.9844583 7.53903759,9.68358089 8.61130924,8.61130924 C9.68358089,7.53903759 10.9844583,7 12.5,7 C14.0155417,7 15.3164191,7.53903759 16.3886908,8.61130924 C17.4609624,9.68358089 18,10.9844583 18,12.5 C18,13.7396653 17.6261434,14.8522536 16.8813931,15.8298073 L19.5396273,18.4751375 Z M15.3378717,15.3378717 C15.7119243,14.9638192 16.0015225,14.53693 16.2070912,14.0572826 C16.4127961,13.5687334 16.515625,13.0503043 16.515625,12.5 C16.515625,11.9496957 16.4127961,11.4312666 16.2077137,10.9441829 C16.0015225,10.46307 15.7119243,10.0361808 15.3378717,9.66212826 C14.9638192,9.28807573 14.53693,8.99847753 14.0572826,8.79290884 C13.5687334,8.58720391 13.0503043,8.484375 12.5,8.484375 C11.9496957,8.484375 11.4312666,8.58720391 10.9441829,8.79228626 C10.46307,8.99847753 10.0361808,9.28807573 9.66212826,9.66212826 C9.28893865,10.0353179 9.00444245,10.4609926 8.80511893,10.9461185 C8.5912388,11.4337652 8.484375,11.950986 8.484375,12.5 C8.484375,13.049014 8.5912388,13.5662348 8.80742683,14.0593172 C9.00444245,14.5390074 9.28893865,14.9646821 9.66212826,15.3378717 C10.0361808,15.7119243 10.46307,16.0015225 10.9427174,16.2070912 C11.4312666,16.4127961 11.9496957,16.515625 12.5,16.515625 C13.0500288,16.515625 13.5682143,16.412899 14.0565488,16.2074 C14.5373629,16.0012288 14.9640089,15.7117346 15.3378717,15.3378717 Z" id="search---anticon" fill="#DCE0F2" fill-rule="nonzero"></path>
    </g>
</svg>