<?xml version="1.0" encoding="UTF-8"?>
<svg width="24px" height="24px" viewBox="0 0 24 24" version="1.1" xmlns="http://www.w3.org/2000/svg" xmlns:xlink="http://www.w3.org/1999/xlink">
    <!-- Generator: Sketch 53.2 (72643) - https://sketchapp.com -->
    <title>icon/tiqianshijian</title>
    <desc>Created with Sketch.</desc>
    <g id="icon/tiqianshijian" stroke="none" stroke-width="1" fill="none" fill-rule="evenodd">
        <g id="noun_advance_1212733" transform="translate(6.000000, 13.000000)" fill="#DCE0F2">
            <path d="M12.2732584,0.187826087 C12.0627697,-0.0172396419 11.7202927,-0.0184075947 11.5083146,0.185217391 C11.2963365,0.388842377 11.2951292,0.720151662 11.505618,0.925217391 L14.1519101,3.47826087 L5.75280899,3.47826087 L5.75280899,4.52173913 L14.1519101,4.52173913 L11.505618,7.07478261 C11.2946328,7.2784076 11.2942304,7.60893823 11.5047191,7.81304346 C11.7152079,8.01714869 12.05688,8.01753801 12.2678652,7.81391304 L15.8310112,4.37043478 C15.9325597,4.27253815 15.9896388,4.13955729 15.9896388,4.00086957 C15.9896388,3.86218184 15.9325597,3.72920098 15.8310112,3.63130435 L12.2732584,0.187826087 Z" id="Path"></path>
            <rect id="Rectangle" x="0.00539325843" y="3.47826087" width="1" height="1.04347826"></rect>
            <rect id="Rectangle" x="4.32" y="3.47826087" width="1" height="1.04347826"></rect>
            <rect id="Rectangle" x="2.88179775" y="3.47826087" width="1" height="1.04347826"></rect>
            <rect id="Rectangle" x="1.44359551" y="3.47826087" width="1" height="1.04347826"></rect>
        </g>
        <g id="shijian" transform="translate(9.500000, 8.500000) scale(-1, 1) translate(-9.500000, -8.500000) translate(2.000000, 1.000000)" fill="#DCE0F2" fill-rule="nonzero">
            <path d="M7.5,14.1 C3.84810486,14.1 0.9,11.1518951 0.9,7.5 C0.9,3.84810486 3.84810486,0.9 7.5,0.9 C11.1518951,0.9 14.1,3.84810486 14.1,7.5 C14.1,11.1518951 11.1518951,14.1 7.5,14.1 Z M7.5,1.96666667 C4.43522847,1.96666667 1.96666667,4.43522847 1.96666667,7.5 C1.96666667,10.5647715 4.43522847,13.0333333 7.5,13.0333333 C10.5647715,13.0333333 13.0333333,10.5647715 13.0333333,7.5 C13.0333333,4.43522847 10.5647715,1.96666667 7.5,1.96666667 Z" id="Shape"></path>
            <path d="M9.26041667,7.61666667 C9.52026427,7.61666667 9.76666667,7.87949589 9.76666667,8.15 C9.76666667,8.42050411 9.52026427,8.68333333 9.26041667,8.68333333 L6.82291667,8.68333333 C6.56306907,8.68333333 6.31666667,8.42050411 6.31666667,8.15 L6.31666667,4.68333333 C6.31666667,4.41282922 6.56306907,4.15 6.82291667,4.15 C7.08276427,4.15 7.32916667,4.41282922 7.32916667,4.68333333 L7.32916667,7.61666667 L9.26041667,7.61666667 Z" id="Path"></path>
        </g>
    </g>
</svg>