<?xml version="1.0" encoding="UTF-8"?>
<svg width="60px" height="60px" viewBox="0 0 60 60" version="1.1" xmlns="http://www.w3.org/2000/svg" xmlns:xlink="http://www.w3.org/1999/xlink">
    <!-- Generator: Sketch 53.1 (72631) - https://sketchapp.com -->
    <title>icon/warning</title>
    <desc>Created with Sketch.</desc>
    <g id="icon/warning" stroke="none" stroke-width="1" fill="none" fill-rule="evenodd">
        <path d="M30,54.0865385 C34.3269447,54.0865385 38.3653659,52.9807803 42.1153846,50.7692308 C45.769249,48.6538356 48.6538356,45.769249 50.7692308,42.1153846 C52.9807803,38.3653659 54.0865385,34.3269447 54.0865385,30 C54.0865385,25.6730553 52.9807803,21.6346341 50.7692308,17.8846154 C48.6538356,14.230751 45.769249,11.3461644 42.1153846,9.23076923 C38.3653659,7.01921971 34.3269447,5.91346154 30,5.91346154 C25.6730553,5.91346154 21.6346341,7.01921971 17.8846154,9.23076923 C14.230751,11.3461644 11.3461644,14.230751 9.23076923,17.8846154 C7.01921971,21.6346341 5.91346154,25.6730553 5.91346154,30 C5.91346154,34.3269447 7.01921971,38.3653659 9.23076923,42.1153846 C11.3461644,45.769249 14.230751,48.6538356 17.8846154,50.7692308 C21.6346341,52.9807803 25.6730553,54.0865385 30,54.0865385 Z M30,0 C35.4807966,0 40.5528613,1.37017861 45.2163462,4.11057692 C49.7355995,6.70674375 53.2932563,10.2644005 55.8894231,14.7836538 C58.6298214,19.4471387 60,24.5192034 60,30 C60,35.4807966 58.6298214,40.5528613 55.8894231,45.2163462 C53.2932563,49.7355995 49.7355995,53.2932563 45.2163462,55.8894231 C40.5528613,58.6298214 35.4807966,60 30,60 C24.5192034,60 19.4471387,58.6298214 14.7836538,55.8894231 C10.2644005,53.2451791 6.70674375,49.6634841 4.11057692,45.1442308 C1.37017861,40.4807459 0,35.4327195 0,30 C0,24.5672805 1.37017861,19.5192541 4.11057692,14.8557692 C6.75482091,10.3365159 10.3365159,6.75482091 14.8557692,4.11057692 C19.5192541,1.37017861 24.5672805,0 30,0 Z M27.0432692,14.9278846 L32.9567308,14.9278846 L32.9567308,32.9567308 L27.0432692,32.9567308 L27.0432692,14.9278846 Z M27.0432692,39.0144231 L32.9567308,39.0144231 L32.9567308,45.0721154 L27.0432692,45.0721154 L27.0432692,39.0144231 Z" fill="#F2BC66"></path>
    </g>
</svg>